<svg width="12" height="12" viewBox="0 0 12 12" fill="none" xmlns="http://www.w3.org/2000/svg">
<path fill-rule="evenodd" clip-rule="evenodd" d="M10.5 9C10.6326 9 10.7598 9.05268 10.8536 9.14645C10.9473 9.24021 11 9.36739 11 9.5C11 9.63261 10.9473 9.75979 10.8536 9.85355C10.7598 9.94732 10.6326 10 10.5 10H1C0.867395 10 0.740218 9.94732 0.64645 9.85355C0.552682 9.75979 0.500003 9.63261 0.500003 9.5C0.500003 9.36739 0.552682 9.24021 0.64645 9.14645C0.740218 9.05268 0.867395 9 1 9H10.5ZM6 2.5C7.612 2.5 8.971 3.0375 9.934 3.7945C10.8795 4.5375 11.5 5.5425 11.5 6.5C11.5 6.921 11.371 7.28 11.1435 7.57C10.922 7.853 10.6265 8.045 10.3255 8.177C9.7325 8.436 9.027 8.5 8.5 8.5H1.497C1.36584 8.49993 1.23598 8.474 1.11485 8.42369C0.993724 8.37337 0.883708 8.29966 0.791102 8.20678C0.698496 8.11389 0.625117 8.00366 0.575167 7.88238C0.525216 7.7611 0.499674 7.63116 0.500003 7.5V3.5C0.500003 2.9495 0.945003 2.5 1.499 2.5H6ZM10.4085 6H1.5V7.5H8.5C8.973 7.5 9.5175 7.439 9.925 7.2605C10.1235 7.1735 10.2655 7.069 10.3565 6.953C10.4415 6.845 10.5 6.704 10.5 6.5C10.5 6.347 10.47 6.178 10.4085 6ZM3.5 3.5H1.5V5H3.5V3.5ZM6 3.5H4.5V5H6.5V3.52C6.337 3.507 6.17 3.5 6 3.5ZM7.5 3.6915V5H9.7755C9.63316 4.84875 9.47955 4.70852 9.316 4.5805C8.835 4.2025 8.221 3.883 7.5 3.6915Z" fill="#EBB42C"/>
</svg>
