<svg width="12" height="12" viewBox="0 0 12 12" fill="none" xmlns="http://www.w3.org/2000/svg">
<path fill-rule="evenodd" clip-rule="evenodd" d="M9.52271 0.828309L8.04533 1.46846L9.02925 5.17877C9.62217 4.96935 10.2481 5.09361 10.7798 5.52626C11.3114 5.95891 11.7087 6.66742 11.8908 7.50757C12.0728 8.34771 12.026 9.25634 11.7599 10.0485C11.4937 10.8406 11.0282 11.4567 10.4581 11.7714C9.88795 12.086 9.2561 12.0756 8.69114 11.7421C8.12619 11.4087 7.67059 10.7774 7.41709 9.97662C7.1636 9.17589 7.13126 8.26596 7.32667 7.43206C7.52207 6.59816 7.93053 5.90298 8.46889 5.48803L7.97453 3.6238L6.27008 8.7286C6.24551 8.80193 6.20708 8.86378 6.15921 8.90701C6.11134 8.95024 6.05598 8.97311 5.9995 8.97298H4.781C4.704 9.84553 4.39947 10.6431 3.92931 11.2035C3.45914 11.7639 2.85862 12.0452 2.2498 11.9901C1.64099 11.935 1.06956 11.5477 0.65166 10.907C0.233763 10.2662 0.00075684 9.42003 6.66201e-07 8.54044C-0.000454149 7.65978 0.231983 6.812 0.64995 6.16986C1.06792 5.52771 1.63996 5.13951 2.24952 5.08436C2.85909 5.02922 3.4603 5.31127 3.93065 5.87305C4.40101 6.43483 4.70511 7.23407 4.781 8.10791H5.53094L4.06706 2.19772C4.05553 2.15107 4.04965 2.10191 4.04966 2.05239H3.5997C3.52014 2.05239 3.44384 2.00682 3.38759 1.9257C3.33133 1.84458 3.29973 1.73457 3.29973 1.61985C3.29973 1.50514 3.33133 1.39512 3.38759 1.314C3.44384 1.23289 3.52014 1.18731 3.5997 1.18731H4.94959C5.02915 1.18731 5.10545 1.23289 5.1617 1.314C5.21796 1.39512 5.24956 1.50514 5.24956 1.61985C5.24956 1.73457 5.21796 1.84458 5.1617 1.9257C5.10545 2.00682 5.02915 2.05239 4.94959 2.05239H4.66821L5.22076 4.28298L7.65866 2.43302L7.36918 1.34173C7.35445 1.28616 7.34783 1.2268 7.34973 1.16737C7.35162 1.10793 7.36201 1.04971 7.38022 0.996322C7.39844 0.942938 7.4241 0.895547 7.45559 0.857112C7.48709 0.818676 7.52374 0.790023 7.56327 0.772944L9.35022 0L9.52271 0.828309ZM5.42445 5.1061L6.016 7.49371L7.28489 3.6943L5.42445 5.1061ZM9.31902 8.69486L8.68517 6.30423C8.29649 6.63488 8.00813 7.16402 7.87725 7.78678C7.74637 8.40953 7.78251 9.08046 7.97852 9.6666C8.17453 10.2527 8.51609 10.7113 8.93553 10.9515C9.35497 11.1916 9.82167 11.1958 10.2431 10.9632C10.6646 10.7306 11.0101 10.2781 11.2111 9.69554C11.4122 9.11295 11.4541 8.44272 11.3286 7.81767C11.2031 7.19262 10.9193 6.65836 10.5335 6.32077C10.1477 5.98318 9.68799 5.8669 9.24553 5.99496L9.87938 8.38603C9.90649 8.49276 9.90338 8.6106 9.87071 8.71405C9.83804 8.8175 9.77844 8.89825 9.70481 8.93883C9.63117 8.97942 9.54941 8.97657 9.47722 8.93092C9.40502 8.88526 9.34819 8.80046 9.31902 8.69486ZM4.17475 8.10791H2.3998C2.32024 8.10791 2.24394 8.15348 2.18769 8.23459C2.13143 8.31571 2.09983 8.42573 2.09983 8.54044C2.09983 8.65516 2.13143 8.76518 2.18769 8.8463C2.24394 8.92741 2.32024 8.97298 2.3998 8.97298H4.17475C4.09834 9.61317 3.85825 10.1888 3.50188 10.5862C3.14552 10.9836 2.69877 11.1739 2.24984 11.1196C1.8009 11.0653 1.38241 10.7703 1.07696 10.2928C0.771509 9.8153 0.601307 9.19004 0.599951 8.54044C0.599539 7.88931 0.768894 7.26174 1.07442 6.78225C1.37994 6.30276 1.7993 6.00639 2.2493 5.95194C2.69929 5.8975 3.14705 6.08895 3.50371 6.48831C3.86038 6.88768 4.0999 7.46578 4.17475 8.10791Z" fill="#EBB42C"/>
</svg>
