<svg width="12" height="12" viewBox="0 0 12 12" fill="none" xmlns="http://www.w3.org/2000/svg">
<path fill-rule="evenodd" clip-rule="evenodd" d="M7.882 2C8.16053 2.00001 8.43355 2.07757 8.67048 2.22398C8.90742 2.3704 9.09891 2.5799 9.2235 2.829L9.9165 4.2145C10.0385 4.1645 10.1585 4.1105 10.2765 4.0525C10.3952 3.99322 10.5326 3.98352 10.6584 4.02553C10.7842 4.06754 10.8882 4.15782 10.9475 4.2765C11.0068 4.39518 11.0165 4.53256 10.9745 4.65839C10.9325 4.78423 10.8422 4.88822 10.7235 4.9475C10.6033 5.001 10.4825 5.053 10.361 5.1035L10.8415 6.065C10.9458 6.27348 11.0001 6.50339 11 6.7365V8C11.0003 8.21109 10.9559 8.41985 10.8697 8.61255C10.7836 8.80525 10.6575 8.97751 10.5 9.118V9.75C10.5 9.94891 10.421 10.1397 10.2803 10.2803C10.1397 10.421 9.94891 10.5 9.75 10.5C9.55109 10.5 9.36032 10.421 9.21967 10.2803C9.07902 10.1397 9 9.94891 9 9.75V9.5H3V9.75C3 9.94891 2.92098 10.1397 2.78033 10.2803C2.63968 10.421 2.44891 10.5 2.25 10.5C2.05109 10.5 1.86032 10.421 1.71967 10.2803C1.57902 10.1397 1.5 9.94891 1.5 9.75V9.118C1.193 8.843 1 8.444 1 8V6.736C1.00009 6.50323 1.05436 6.27367 1.1585 6.0655L1.635 5.1115C1.5145 5.0605 1.395 5.0065 1.2775 4.948C1.15942 4.88795 1.06965 4.78391 1.02757 4.6583C0.985478 4.53269 0.994433 4.39557 1.0525 4.2765C1.08183 4.21771 1.12246 4.16528 1.17206 4.12221C1.22166 4.07913 1.27927 4.04625 1.34158 4.02545C1.4039 4.00465 1.4697 3.99633 1.53523 4.00097C1.60076 4.00561 1.66474 4.02312 1.7235 4.0525C1.8415 4.111 1.962 4.1645 2.0835 4.2145L2.7765 2.8295C2.90102 2.5803 3.09248 2.37071 3.32942 2.2242C3.56636 2.07769 3.83942 2.00006 4.118 2H7.882ZM3.75 6.5C3.55109 6.5 3.36032 6.57902 3.21967 6.71967C3.07902 6.86032 3 7.05109 3 7.25C3 7.44891 3.07902 7.63968 3.21967 7.78033C3.36032 7.92098 3.55109 8 3.75 8C3.94891 8 4.13968 7.92098 4.28033 7.78033C4.42098 7.63968 4.5 7.44891 4.5 7.25C4.5 7.05109 4.42098 6.86032 4.28033 6.71967C4.13968 6.57902 3.94891 6.5 3.75 6.5ZM8.25 6.5C8.05109 6.5 7.86032 6.57902 7.71967 6.71967C7.57902 6.86032 7.5 7.05109 7.5 7.25C7.5 7.44891 7.57902 7.63968 7.71967 7.78033C7.86032 7.92098 8.05109 8 8.25 8C8.44891 8 8.63968 7.92098 8.78033 7.78033C8.92098 7.63968 9 7.44891 9 7.25C9 7.05109 8.92098 6.86032 8.78033 6.71967C8.63968 6.57902 8.44891 6.5 8.25 6.5ZM7.882 3H4.118C4.0357 2.99999 3.95468 3.02029 3.88211 3.0591C3.80954 3.09792 3.74767 3.15404 3.702 3.2225L3.671 3.2765L3.036 4.5455C3.81 4.7775 4.853 5 6 5C7.071 5 8.0505 4.806 8.805 4.5915L8.9635 4.5455L8.329 3.2765C8.2922 3.20291 8.23781 3.13953 8.17065 3.092C8.10349 3.04446 8.02564 3.01424 7.944 3.004L7.8825 3H7.882Z" fill="#EBB42C"/>
</svg>
