<svg width="17" height="17" viewBox="0 0 17 17" fill="none" xmlns="http://www.w3.org/2000/svg">
<g id="&#240;&#159;&#166;&#134; icon &#34;instagram&#34;">
<path id="Vector" d="M8.49984 11.8334C10.3408 11.8334 11.8332 10.341 11.8332 8.50008C11.8332 6.65913 10.3408 5.16675 8.49984 5.16675C6.65889 5.16675 5.1665 6.65913 5.1665 8.50008C5.1665 10.341 6.65889 11.8334 8.49984 11.8334Z" stroke="black" stroke-linecap="round" stroke-linejoin="round"/>
<path id="Vector_2" d="M1 11.8333V5.16667C1 2.86548 2.86548 1 5.16667 1H11.8333C14.1345 1 16 2.86548 16 5.16667V11.8333C16 14.1345 14.1345 16 11.8333 16H5.16667C2.86548 16 1 14.1345 1 11.8333Z" stroke="black"/>
<path id="Vector_3" d="M13.0835 3.9259L13.0928 3.91577" stroke="black" stroke-linecap="round" stroke-linejoin="round"/>
</g>
</svg>
